<svg xmlns="http://www.w3.org/2000/svg" viewBox="39.8 122.0 740.4 728.0" width="4.33in" height="4.258in" font-family="Helvetica,Arial,sans-serif">
<rect x="39.8" y="122.0" width="740.4" height="728.0" fill="#ffffff"/>
<text x="410.0" y="150" text-anchor="middle" font-size="21" font-weight="700" fill="#16161a">base</text>
<path d="M 195 824 Q 410 828 625 823" fill="none" stroke="#ded9d0" stroke-width="1.4" stroke-linecap="round"/>
<path d="M 410.0 292.0 Q 410.6 306.1 410.0 322.0" fill="none" stroke="#26262b" stroke-opacity="0.45" stroke-width="1.4" stroke-linecap="round"/>
<path d="M 410.0 330.0 Q 410.1 444.8 410.0 560.0" fill="none" stroke="#26262b" stroke-opacity="0.45" stroke-width="1.4" stroke-linecap="round"/>
<path d="M 338.0 326.0 Q 323.5 396.6 309.0 468.0" fill="none" stroke="#26262b" stroke-opacity="0.45" stroke-width="1.4" stroke-linecap="round"/>
<path d="M 482.0 326.0 Q 496.3 398.4 511.0 468.0" fill="none" stroke="#26262b" stroke-opacity="0.45" stroke-width="1.4" stroke-linecap="round"/>
<path d="M 401.0 552.0 Q 388.3 664.5 376.0 775.0" fill="none" stroke="#26262b" stroke-opacity="0.45" stroke-width="1.4" stroke-linecap="round"/>
<path d="M 419.0 552.0 Q 431.2 663.0 444.0 775.0" fill="none" stroke="#26262b" stroke-opacity="0.45" stroke-width="1.4" stroke-linecap="round"/>
<path d="M 364.6 463.2 L 455.1 460.6 L 503.8 630.9 L 315.8 632.8 Z" fill="#8b8b8b" stroke="#26262b" stroke-opacity="0.45" stroke-width="1.4" stroke-linejoin="round" stroke-linecap="round"/>
<path d="M 332.8 317.9 L 485.7 317.0 L 474.8 484.3 L 345.6 484.1 Z" fill="#ffffff" stroke="#26262b" stroke-opacity="0.45" stroke-width="1.4" stroke-linejoin="round" stroke-linecap="round"/>
<path d="M 344.1 326.0 L 475.2 326.3 L 464.7 474.8 L 354.7 473.8 Z" fill="#ffffff" stroke="#26262b" stroke-opacity="0.45" stroke-width="1.4" stroke-linejoin="round" stroke-linecap="round"/>
<path d="M 352.9 337.3 L 465.6 336.9 L 456.1 466.5 L 364.7 467.1 Z" fill="#9e9e9e" stroke="#26262b" stroke-opacity="0.45" stroke-width="1.4" stroke-linejoin="round" stroke-linecap="round"/>
<path d="M 364.0 344.9 L 457.5 344.8 L 445.5 458.3 L 372.8 457.9 Z" fill="#b4b4b4" stroke="#26262b" stroke-opacity="0.45" stroke-width="1.4" stroke-linejoin="round" stroke-linecap="round"/>
<path d="M 374.9 354.0 L 445.7 355.0 L 439.1 446.8 L 382.0 449.4 Z" fill="#8b8b8b" stroke="#26262b" stroke-opacity="0.45" stroke-width="1.4" stroke-linejoin="round" stroke-linecap="round"/>
<path d="M 383.1 361.6 L 435.5 362.2 L 429.5 438.7 L 390.4 440.2 Z" fill="#b1b1b1" stroke="#26262b" stroke-opacity="0.45" stroke-width="1.4" stroke-linejoin="round" stroke-linecap="round"/>
<path d="M 373.3 478.2 L 445.1 477.6 L 477.2 573.2 L 345.0 574.4 Z" fill="#a9a9a9" stroke="#26262b" stroke-opacity="0.45" stroke-width="1.4" stroke-linejoin="round" stroke-linecap="round"/>
<path d="M 382.9 485.9 L 435.8 486.7 L 430.3 523.0 L 409.7 537.0 L 389.8 524.0 Z" fill="#b7b7b7" stroke="#26262b" stroke-opacity="0.45" stroke-width="1.4" stroke-linejoin="round" stroke-linecap="round"/>
<path d="M 394.5 491.7 L 425.8 492.7 L 422.0 518.9 L 410.5 528.0 L 397.4 518.2 Z" fill="#bdbdbd" stroke="#26262b" stroke-opacity="0.45" stroke-width="1.4" stroke-linejoin="round" stroke-linecap="round"/>
<path d="M 357.4 566.2 L 409.7 565.7 L 398.2 772.8 L 354.1 772.6 Z" fill="#999999" stroke="#26262b" stroke-opacity="0.45" stroke-width="1.4" stroke-linejoin="round" stroke-linecap="round"/>
<path d="M 409.2 565.2 L 462.2 566.3 L 464.7 771.9 L 421.7 772.6 Z" fill="#999999" stroke="#26262b" stroke-opacity="0.45" stroke-width="1.4" stroke-linejoin="round" stroke-linecap="round"/>
<path d="M 366.5 572.3 L 400.7 571.2 L 391.5 751.5 L 362.1 751.9 Z" fill="#c2c2c2" stroke="#26262b" stroke-opacity="0.45" stroke-width="1.4" stroke-linejoin="round" stroke-linecap="round"/>
<path d="M 419.0 571.7 L 454.8 571.7 L 458.4 751.7 L 428.2 751.6 Z" fill="#c2c2c2" stroke="#26262b" stroke-opacity="0.45" stroke-width="1.4" stroke-linejoin="round" stroke-linecap="round"/>
<path d="M 371.5 578.7 L 393.2 578.2 L 387.3 723.3 L 369.7 724.7 Z" fill="#c8c8c8" stroke="#26262b" stroke-opacity="0.45" stroke-width="1.4" stroke-linejoin="round" stroke-linecap="round"/>
<path d="M 424.8 577.7 L 447.8 577.4 L 451.0 724.6 L 433.8 724.5 Z" fill="#c8c8c8" stroke="#26262b" stroke-opacity="0.45" stroke-width="1.4" stroke-linejoin="round" stroke-linecap="round"/>
<path d="M 397.5 781.6 L 365.1 780.8 L 338.7 793.9 L 332.6 808.8 L 397.5 807 Z" fill="#ffffff" stroke="#26262b" stroke-opacity="0.45" stroke-width="1.4" stroke-linejoin="round" stroke-linecap="round"/>
<path d="M 422.5 781.6 L 454.9 780.8 L 481.3 793.9 L 487.4 808.8 L 422.5 807.0 Z" fill="#ffffff" stroke="#26262b" stroke-opacity="0.45" stroke-width="1.4" stroke-linejoin="round" stroke-linecap="round"/>
<path d="M 376.0 356 Q 391.0 384 407.0 361 Q 423.0 384 442.0 355 Q 426.0 344 407.0 350 Q 389.0 345 376.0 356 Z" fill="#b6b6b6" stroke="#26262b" stroke-opacity="0.45" stroke-width="1.4" stroke-linejoin="round"/>
<path d="M 407.0 350 L 407.0 361" stroke="#26262b" stroke-opacity="0.45" stroke-width="1.4"/>
<path d="M 295.6 462.6 L 323.8 461.5 L 324.3 489.4 L 314.6 504.7 L 299.2 506.0 L 292.5 487.6 Z" fill="#ffffff" stroke="#26262b" stroke-opacity="0.45" stroke-width="1.4" stroke-linejoin="round" stroke-linecap="round"/>
<path d="M 496.9 461.6 L 525.0 461.1 L 526.4 490.8 L 516.7 505.8 L 501.3 505.6 L 494.1 489.0 Z" fill="#ffffff" stroke="#26262b" stroke-opacity="0.45" stroke-width="1.4" stroke-linejoin="round" stroke-linecap="round"/>
<path d="M 377.9 295.8 L 442.4 296.9 L 442.5 317.2 L 377.1 317.7 Z" fill="#c7c7c7" stroke="#26262b" stroke-opacity="0.45" stroke-width="1.4" stroke-linejoin="round" stroke-linecap="round"/>
<path d="M 376.8 310.5 L 390.3 309.6 L 387.5 348.3 L 372.8 344.2 Z" fill="#c7c7c7" stroke="#26262b" stroke-opacity="0.45" stroke-width="1.4" stroke-linejoin="round" stroke-linecap="round"/>
<circle cx="410.0" cy="250.0" r="40.0" fill="#fffdf8" stroke="#26262b" stroke-opacity="0.45" stroke-width="1.4"/>
<path d="M 396.0 272 Q 410.0 284 424.0 271" fill="none" stroke="#26262b" stroke-opacity="0.45" stroke-width="1.4" stroke-linecap="round"/>
<circle cx="393.0" cy="248.0" r="12.5" fill="#ffffff" stroke="#26262b" stroke-opacity="0.45" stroke-width="1.4"/>
<circle cx="427.0" cy="248.0" r="12.5" fill="#ffffff" stroke="#26262b" stroke-opacity="0.45" stroke-width="1.4"/>
<path d="M 405.5 248 L 414.5 248" stroke="#26262b" stroke-opacity="0.45" stroke-width="1.4"/>
<path d="M 381.0 246 L 372.0 243" stroke="#26262b" stroke-opacity="0.45" stroke-width="1.4" stroke-linecap="round"/>
<path d="M 439.0 246 L 448.0 243" stroke="#26262b" stroke-opacity="0.45" stroke-width="1.4" stroke-linecap="round"/>
<path d="M 231.9 256.3 L 306.9 256.6 L 300.6 243.2 L 237.8 242.9 Z" fill="#8b8b8b" stroke="#26262b" stroke-opacity="0.45" stroke-width="1.4" stroke-linejoin="round" stroke-linecap="round"/>
<path d="M 231.3 243.6 L 294.4 243.6 L 287.3 232.0 L 236.8 233.0 Z" fill="#8b8b8b" stroke="#26262b" stroke-opacity="0.45" stroke-width="1.4" stroke-linejoin="round" stroke-linecap="round"/>
<path d="M 250.4 232.4 L 301.7 231.8 L 297.3 222.6 L 255.7 223.0 Z" fill="#8b8b8b" stroke="#26262b" stroke-opacity="0.45" stroke-width="1.4" stroke-linejoin="round" stroke-linecap="round"/>
<path d="M 523.8 251.0 L 579.3 251.2 L 574.8 242.6 L 528.6 242.1 Z" fill="#bbbbbb" stroke="#26262b" stroke-opacity="0.45" stroke-width="1.4" stroke-linejoin="round" stroke-linecap="round"/>
<path d="M 523.8 242.3 L 570.3 241.8 L 566.2 234.4 L 526.6 233.3 Z" fill="#bbbbbb" stroke="#26262b" stroke-opacity="0.45" stroke-width="1.4" stroke-linejoin="round" stroke-linecap="round"/>
<path d="M 537.7 235.0 L 576.5 234.1 L 572.8 227.7 L 541.3 227.7 Z" fill="#bbbbbb" stroke="#26262b" stroke-opacity="0.45" stroke-width="1.4" stroke-linejoin="round" stroke-linecap="round"/>
<path d="M 618.5 275.0 L 606.0 275.0 L 580.0 258.0" fill="none" stroke="#a8a49b" stroke-width="0.9" stroke-linejoin="round"/>
<circle cx="580.0" cy="258.0" r="2.2" fill="#77746c"/>
<rect x="619.5" y="266.5" width="17" height="17" rx="3.5" fill="#bbbbbb" stroke="#26262b" stroke-width="1.2"/>
<text x="642.0" y="280.5" text-anchor="start" font-size="16.5" fill="#1d1d20"><tspan font-weight="700">clothing</tspan><tspan dx="7" font-size="14.5" fill="#4a4843" font-weight="700">−0.17</tspan></text>
<path d="M 201.5 264.0 L 214.0 264.0 L 238.0 264.0" fill="none" stroke="#a8a49b" stroke-width="0.9" stroke-linejoin="round"/>
<circle cx="238.0" cy="264.0" r="2.2" fill="#77746c"/>
<rect x="183.5" y="255.5" width="17" height="17" rx="3.5" fill="#8b8b8b" stroke="#26262b" stroke-width="1.2"/>
<text x="178.0" y="269.5" text-anchor="end" font-size="16.5" fill="#1d1d20"><tspan font-weight="700">clothes</tspan><tspan dx="7" font-size="14.5" fill="#4a4843" font-weight="700">−0.55</tspan></text>
<path d="M 201.5 304.0 L 214.0 304.0 L 377.0 304.0" fill="none" stroke="#a8a49b" stroke-width="0.9" stroke-linejoin="round"/>
<circle cx="377.0" cy="304.0" r="2.2" fill="#77746c"/>
<rect x="183.5" y="295.5" width="17" height="17" rx="3.5" fill="#c7c7c7" stroke="#26262b" stroke-width="1.2"/>
<text x="178.0" y="309.5" text-anchor="end" font-size="16.5" fill="#1d1d20"><tspan font-weight="700">scarf</tspan><tspan dx="7" font-size="14.5" fill="#4a4843" font-weight="700">−0.11</tspan></text>
<path d="M 201.5 382.0 L 214.0 382.0 L 376.0 358.0" fill="none" stroke="#a8a49b" stroke-width="0.9" stroke-linejoin="round"/>
<circle cx="376.0" cy="358.0" r="2.2" fill="#77746c"/>
<rect x="183.5" y="373.5" width="17" height="17" rx="3.5" fill="#b6b6b6" stroke="#26262b" stroke-width="1.2"/>
<text x="178.0" y="387.5" text-anchor="end" font-size="16.5" fill="#1d1d20"><tspan font-weight="700">bra</tspan><tspan dx="7" font-size="14.5" fill="#4a4843" font-weight="700">−0.19</tspan></text>
<path d="M 201.5 412.0 L 214.0 412.0 L 358.8 398.0" fill="none" stroke="#a8a49b" stroke-width="0.9" stroke-linejoin="round"/>
<circle cx="358.8" cy="398.0" r="2.2" fill="#77746c"/>
<rect x="183.5" y="403.5" width="17" height="17" rx="3.5" fill="#9e9e9e" stroke="#26262b" stroke-width="1.2"/>
<text x="178.0" y="417.5" text-anchor="end" font-size="16.5" fill="#1d1d20"><tspan font-weight="700">robe</tspan><tspan dx="7" font-size="14.5" fill="#4a4843" font-weight="700">−0.37</tspan></text>
<path d="M 618.5 416.0 L 606.0 416.0 L 450.3 416.0" fill="none" stroke="#a8a49b" stroke-width="0.9" stroke-linejoin="round"/>
<circle cx="450.3" cy="416.0" r="2.2" fill="#77746c"/>
<rect x="619.5" y="407.5" width="17" height="17" rx="3.5" fill="#b4b4b4" stroke="#26262b" stroke-width="1.2"/>
<text x="642.0" y="421.5" text-anchor="start" font-size="16.5" fill="#1d1d20"><tspan font-weight="700">sweater</tspan><tspan dx="7" font-size="14.5" fill="#4a4843" font-weight="700">−0.21</tspan></text>
<path d="M 201.5 442.0 L 214.0 442.0 L 380.8 434.0" fill="none" stroke="#a8a49b" stroke-width="0.9" stroke-linejoin="round"/>
<circle cx="380.8" cy="434.0" r="2.2" fill="#77746c"/>
<rect x="183.5" y="433.5" width="17" height="17" rx="3.5" fill="#8b8b8b" stroke="#26262b" stroke-width="1.2"/>
<text x="178.0" y="447.5" text-anchor="end" font-size="16.5" fill="#1d1d20"><tspan font-weight="700">shirt</tspan><tspan dx="7" font-size="14.5" fill="#4a4843" font-weight="700">−0.55</tspan></text>
<path d="M 201.5 472.0 L 214.0 472.0 L 390.7 436.0" fill="none" stroke="#a8a49b" stroke-width="0.9" stroke-linejoin="round"/>
<circle cx="390.7" cy="436.0" r="2.2" fill="#77746c"/>
<rect x="183.5" y="463.5" width="17" height="17" rx="3.5" fill="#b1b1b1" stroke="#26262b" stroke-width="1.2"/>
<text x="178.0" y="477.5" text-anchor="end" font-size="16.5" fill="#1d1d20"><tspan font-weight="700">top</tspan><tspan dx="7" font-size="14.5" fill="#4a4843" font-weight="700">−0.23</tspan></text>
<path d="M 201.5 532.0 L 214.0 532.0 L 383.0 498.0" fill="none" stroke="#a8a49b" stroke-width="0.9" stroke-linejoin="round"/>
<circle cx="383.0" cy="498.0" r="2.2" fill="#77746c"/>
<rect x="183.5" y="523.5" width="17" height="17" rx="3.5" fill="#b7b7b7" stroke="#26262b" stroke-width="1.2"/>
<text x="178.0" y="537.5" text-anchor="end" font-size="16.5" fill="#1d1d20"><tspan font-weight="700">panties</tspan><tspan dx="7" font-size="14.5" fill="#4a4843" font-weight="700">−0.19</tspan></text>
<path d="M 618.5 536.0 L 606.0 536.0 L 425.0 508.0" fill="none" stroke="#a8a49b" stroke-width="0.9" stroke-linejoin="round"/>
<circle cx="425.0" cy="508.0" r="2.2" fill="#77746c"/>
<rect x="619.5" y="527.5" width="17" height="17" rx="3.5" fill="#bdbdbd" stroke="#26262b" stroke-width="1.2"/>
<text x="642.0" y="541.5" text-anchor="start" font-size="16.5" fill="#1d1d20"><tspan font-weight="700">underwear</tspan><tspan dx="7" font-size="14.5" fill="#4a4843" font-weight="700">−0.16</tspan></text>
<path d="M 618.5 566.0 L 606.0 566.0 L 472.0 558.0" fill="none" stroke="#a8a49b" stroke-width="0.9" stroke-linejoin="round"/>
<circle cx="472.0" cy="558.0" r="2.2" fill="#77746c"/>
<rect x="619.5" y="557.5" width="17" height="17" rx="3.5" fill="#a9a9a9" stroke="#26262b" stroke-width="1.2"/>
<text x="642.0" y="571.5" text-anchor="start" font-size="16.5" fill="#1d1d20"><tspan font-weight="700">skirt</tspan><tspan dx="7" font-size="14.5" fill="#4a4843" font-weight="700">−0.29</tspan></text>
<path d="M 201.5 606.0 L 214.0 606.0 L 326.0 606.0" fill="none" stroke="#a8a49b" stroke-width="0.9" stroke-linejoin="round"/>
<circle cx="326.0" cy="606.0" r="2.2" fill="#77746c"/>
<rect x="183.5" y="597.5" width="17" height="17" rx="3.5" fill="#8b8b8b" stroke="#26262b" stroke-width="1.2"/>
<text x="178.0" y="611.5" text-anchor="end" font-size="16.5" fill="#1d1d20"><tspan font-weight="700">dress</tspan><tspan dx="7" font-size="14.5" fill="#4a4843" font-weight="700">−0.55</tspan></text>
<path d="M 201.5 648.0 L 214.0 648.0 L 354.7 648.0" fill="none" stroke="#a8a49b" stroke-width="0.9" stroke-linejoin="round"/>
<circle cx="354.7" cy="648.0" r="2.2" fill="#77746c"/>
<rect x="183.5" y="639.5" width="17" height="17" rx="3.5" fill="#999999" stroke="#26262b" stroke-width="1.2"/>
<text x="178.0" y="653.5" text-anchor="end" font-size="16.5" fill="#1d1d20"><tspan font-weight="700">pants</tspan><tspan dx="7" font-size="14.5" fill="#4a4843" font-weight="700">−0.41</tspan></text>
<path d="M 618.5 664.0 L 606.0 664.0 L 457.9 664.0" fill="none" stroke="#a8a49b" stroke-width="0.9" stroke-linejoin="round"/>
<circle cx="457.9" cy="664.0" r="2.2" fill="#77746c"/>
<rect x="619.5" y="655.5" width="17" height="17" rx="3.5" fill="#c2c2c2" stroke="#26262b" stroke-width="1.2"/>
<text x="642.0" y="669.5" text-anchor="start" font-size="16.5" fill="#1d1d20"><tspan font-weight="700">jeans</tspan><tspan dx="7" font-size="14.5" fill="#4a4843" font-weight="700">−0.13</tspan></text>
<path d="M 201.5 700.0 L 214.0 700.0 L 367.8 700.0" fill="none" stroke="#a8a49b" stroke-width="0.9" stroke-linejoin="round"/>
<circle cx="367.8" cy="700.0" r="2.2" fill="#77746c"/>
<rect x="183.5" y="691.5" width="17" height="17" rx="3.5" fill="#c8c8c8" stroke="#26262b" stroke-width="1.2"/>
<text x="178.0" y="705.5" text-anchor="end" font-size="16.5" fill="#1d1d20"><tspan font-weight="700">stockings</tspan><tspan dx="7" font-size="14.5" fill="#4a4843" font-weight="700">−0.11</tspan></text>
</svg>
